<?xml version="1.0" encoding="utf-8"?>
<!-- Generator: Adobe Illustrator 25.0.1, SVG Export Plug-In . SVG Version: 6.00 Build 0)  -->
<svg version="1.1" id="Layer_1" xmlns="http://www.w3.org/2000/svg" xmlns:xlink="http://www.w3.org/1999/xlink" x="0px" y="0px"
	 viewBox="0 0 480 480" style="enable-background:new 0 0 480 480;" xml:space="preserve">
<style type="text/css">
	.st0{fill:url(#SVGID_1_);}
	.st1{fill:#FFFFFF;}
	.st2{fill:#01DAFF;}
</style>
<g>
	
		<linearGradient id="SVGID_1_" gradientUnits="userSpaceOnUse" x1="240" y1="480.439" x2="240" y2="-221.379" gradientTransform="matrix(1 0 0 -1 0 480.439)">
		<stop  offset="0" style="stop-color:#08021E"/>
		<stop  offset="1" style="stop-color:#1F0777"/>
	</linearGradient>
	<circle class="st0" cx="240" cy="240" r="240"/>
	<g>
		<path class="st1" d="M161,187c0.4,0.4,0.8,0.4,0.8,0.8c0.4,2.9,2.1,5.5,4.6,7.1c22.3,16.4,44.5,32.3,66.8,48.3
			c4.2,3.8,10.9,3.8,15.1,0c12.2-8.8,24.4-17.6,36.5-26.5c6.7-4.6,12.2-11.8,14.7-19.7c0.8-2.5,1.3-5,1.7-8c0,7.1,0.4,15.5,0,23.5
			c-0.8,9.7-5.9,18.9-13.9,24.4c-13.4,10.1-26.9,19.7-40.3,29.4c-4.2,2.9-9.7,2.5-13.4-0.4c-4.6-2.9-8.8-5.9-13-9.2
			c-17.6-13-35.7-26-53.3-39.1c-3.4-2.1-5.5-5-5.9-8.8c0-6.3,0-13,0-19.3c0-0.4-0.4-0.8-0.4-1.3V187z"/>
		<path class="st1" d="M161,233.6c0.4,0,0.8,0.4,0.8,0.4c0.4,3.4,2.5,6.3,5.5,8c10.1,7.6,20.2,15.5,30.7,22.7
			c11.3,8.4,23.1,16.4,34.4,24.4c6.7,4.6,10.1,4.6,16.8,0c11.8-8.4,23.1-16.8,34.9-25.2c7.1-4.6,12.2-11.8,15.1-19.7
			c0.8-2.9,1.3-6.3,2.5-9.7c-0.4,8.8,0,18.1-1.3,26.9c-1.3,9.2-5.9,17.6-13.4,23.1c-13,10.1-26.5,19.3-39.9,29
			c-4.2,2.9-10.1,2.5-13.9-0.8c-5.9-3.8-11.8-8-17.2-12.2c-16.4-12.2-32.8-23.9-49.1-36.1c-2.9-2.1-5-5-5.5-8.8c0-6.7,0-13,0-19.7
			c0-0.4-0.4-0.8-0.4-1.3C161,234.4,161,234,161,233.6z"/>
		<path class="st2" d="M196.3,187c0.4-0.4,0.4-0.8,0.8-0.8c6.7-5,13.9-10.1,21-15.1s15.5-7.6,24.4-7.6c8,0,16,2.5,22.7,7.6
			c3.4,2.1,6.3,4.6,9.2,7.6c4.6,4.6,5.5,12.2,1.3,17.6c-0.4,0.8-1.3,1.3-2.5,0.8c0,0-0.4,0-0.4-0.4c-1.7-1.3-2.9-2.1-4.6-2.9
			c-14.3-10.1-33.2-10.1-47,0c-2.5,1.7-5,3.4-7.6,4.6c-0.4,0.4-1.3,0.4-2.1,0c-5-3.4-9.7-6.7-14.7-10.1
			C196.7,187.8,196.3,187.4,196.3,187z"/>
	</g>
</g>
</svg>
